<mxfile host="65bd71144e">
    <diagram id="vlG1TyHq9RHQoO5ninMu" name="Page-1">
        <mxGraphModel dx="208" dy="539" grid="1" gridSize="10" guides="1" tooltips="1" connect="1" arrows="1" fold="1" page="1" pageScale="1" pageWidth="1100" pageHeight="1700" math="0" shadow="0">
            <root>
                <mxCell id="0"/>
                <mxCell id="1" parent="0"/>
                <mxCell id="2" value="" style="rounded=0;whiteSpace=wrap;html=1;fillColor=#f9f7ed;strokeColor=#36393d;" vertex="1" parent="1">
                    <mxGeometry x="150" y="40" width="860" height="470" as="geometry"/>
                </mxCell>
                <mxCell id="3" value="" style="rounded=0;whiteSpace=wrap;html=1;fillColor=#f9f7ed;strokeColor=#3e373a;" vertex="1" parent="1">
                    <mxGeometry x="405" y="160" width="290" height="220" as="geometry"/>
                </mxCell>
                <mxCell id="4" value="&lt;font color=&quot;#0f0f0f&quot;&gt;500x400&lt;/font&gt;" style="rounded=0;whiteSpace=wrap;html=1;strokeColor=#36393d;fillColor=#f9f7ed;" vertex="1" parent="1">
                    <mxGeometry x="575" y="70" width="120" height="30" as="geometry"/>
                </mxCell>
                <mxCell id="5" value="Text" style="text;html=1;strokeColor=none;fillColor=none;align=center;verticalAlign=middle;whiteSpace=wrap;rounded=0;" vertex="1" parent="1">
                    <mxGeometry x="520" y="250" width="60" height="30" as="geometry"/>
                </mxCell>
                <mxCell id="7" value="当前选中：" style="text;html=1;strokeColor=none;fillColor=none;align=center;verticalAlign=middle;whiteSpace=wrap;rounded=0;fontColor=#0F0F0F;" vertex="1" parent="1">
                    <mxGeometry x="170" y="70" width="80" height="30" as="geometry"/>
                </mxCell>
                <mxCell id="8" value="" style="rounded=0;whiteSpace=wrap;html=1;strokeColor=#3e373a;fontColor=#0F0F0F;fillColor=none;" vertex="1" parent="1">
                    <mxGeometry x="150" y="40" width="860" height="70" as="geometry"/>
                </mxCell>
                <mxCell id="9" value="添加&lt;br&gt;控件" style="rounded=0;whiteSpace=wrap;html=1;strokeColor=#3e373a;fontColor=#0F0F0F;fillColor=none;" vertex="1" parent="1">
                    <mxGeometry x="260" y="120" width="50" height="40" as="geometry"/>
                </mxCell>
                <mxCell id="10" value="" style="rounded=0;whiteSpace=wrap;html=1;strokeColor=#3e373a;fontColor=#0F0F0F;fillColor=none;" vertex="1" parent="1">
                    <mxGeometry x="150" y="110" width="200" height="400" as="geometry"/>
                </mxCell>
                <mxCell id="11" value="" style="rounded=0;whiteSpace=wrap;html=1;strokeColor=#3e373a;fontColor=#0F0F0F;fillColor=none;" vertex="1" parent="1">
                    <mxGeometry x="810" y="110" width="200" height="400" as="geometry"/>
                </mxCell>
                <mxCell id="12" value="控件树&lt;span style=&quot;color: rgba(0, 0, 0, 0); font-family: monospace; font-size: 0px; text-align: start;&quot;&gt;%3CmxGraphModel%3E%3Croot%3E%3CmxCell%20id%3D%220%22%2F%3E%3CmxCell%20id%3D%221%22%20parent%3D%220%22%2F%3E%3CmxCell%20id%3D%222%22%20value%3D%22%22%20style%3D%22rounded%3D0%3BwhiteSpace%3Dwrap%3Bhtml%3D1%3BstrokeColor%3D%233e373a%3BfontColor%3D%230F0F0F%3BfillColor%3Dnone%3B%22%20vertex%3D%221%22%20parent%3D%221%22%3E%3CmxGeometry%20x%3D%22150%22%20y%3D%22110%22%20width%3D%22200%22%20height%3D%22400%22%20as%3D%22geometry%22%2F%3E%3C%2FmxCell%3E%3C%2Froot%3E%3C%2FmxGraphModel%3E&lt;/span&gt;" style="text;html=1;strokeColor=none;fillColor=none;align=center;verticalAlign=middle;whiteSpace=wrap;rounded=0;fontColor=#0F0F0F;" vertex="1" parent="1">
                    <mxGeometry x="180" y="240" width="60" height="30" as="geometry"/>
                </mxCell>
                <mxCell id="13" value="属性栏" style="text;html=1;strokeColor=none;fillColor=none;align=center;verticalAlign=middle;whiteSpace=wrap;rounded=0;fontColor=#0F0F0F;" vertex="1" parent="1">
                    <mxGeometry x="880" y="230" width="60" height="30" as="geometry"/>
                </mxCell>
            </root>
        </mxGraphModel>
    </diagram>
</mxfile>